<svg width="27" height="30" viewBox="0 0 27 30" fill="none" xmlns="http://www.w3.org/2000/svg">
<path d="M23.3333 2.91667H17.2375C16.625 1.225 15.0208 0 13.125 0C11.2292 0 9.625 1.225 9.0125 2.91667H2.91667C1.3125 2.91667 0 4.22917 0 5.83333V26.25C0 27.8542 1.3125 29.1667 2.91667 29.1667H23.3333C24.9375 29.1667 26.25 27.8542 26.25 26.25V5.83333C26.25 4.22917 24.9375 2.91667 23.3333 2.91667ZM13.125 2.91667C13.9271 2.91667 14.5833 3.57292 14.5833 4.375C14.5833 5.17708 13.9271 5.83333 13.125 5.83333C12.3229 5.83333 11.6667 5.17708 11.6667 4.375C11.6667 3.57292 12.3229 2.91667 13.125 2.91667ZM13.125 8.75C15.5458 8.75 17.5 10.7042 17.5 13.125C17.5 15.5458 15.5458 17.5 13.125 17.5C10.7042 17.5 8.75 15.5458 8.75 13.125C8.75 10.7042 10.7042 8.75 13.125 8.75ZM21.875 26.25H4.375V24.2083C4.375 21.2917 10.2083 19.6875 13.125 19.6875C16.0417 19.6875 21.875 21.2917 21.875 24.2083V26.25Z" fill="#868686"/>
</svg>
