<svg width="574" height="31" viewBox="0 0 574 31" fill="none" xmlns="http://www.w3.org/2000/svg">
<path d="M15.216 7.896H19.664V1.208H23.632V17.24C23.632 18.648 23.44 19.7147 23.056 20.44C22.6933 21.144 22.1067 21.496 21.296 21.496H20.752C20.0267 21.496 19.664 21.1547 19.664 20.472V11.128H15.216V7.896ZM5.424 19.224H9.36V25.176C9.36 25.8587 9.712 26.2 10.416 26.2H23.504C23.9947 26.2 24.24 26.5413 24.24 27.224C24.24 28.696 23.76 29.432 22.8 29.432H9.072C7.856 29.432 6.93867 29.176 6.32 28.664C5.72267 28.1733 5.424 27.352 5.424 26.2V19.224ZM14.672 5.048C14.672 6.47733 14.3947 7.832 13.84 9.112C13.3067 10.3707 12.528 11.5227 11.504 12.568C10.48 13.6347 9.22133 14.5733 7.728 15.384C6.23467 16.1947 4.54933 16.856 2.672 17.368C2.62933 17.4107 2.56533 17.432 2.48 17.432C2.39467 17.432 2.32 17.432 2.256 17.432C1.936 17.432 1.60533 17.2507 1.264 16.888C0.922667 16.504 0.752 15.9707 0.752 15.288C0.752 14.7973 1.008 14.456 1.52 14.264C2.94933 13.8587 4.22933 13.3573 5.36 12.76C6.512 12.1413 7.48267 11.4587 8.272 10.712C9.04 9.96533 9.62667 9.15467 10.032 8.28C10.4587 7.40533 10.672 6.49867 10.672 5.56H1.488V2.328H13.008C14.1173 2.328 14.672 2.872 14.672 3.96V5.048ZM51.7405 13.144C51.7405 14.5947 51.5592 15.6933 51.1965 16.44C50.8338 17.1867 50.2258 17.56 49.3725 17.56H48.8285C48.1245 17.56 47.7725 17.2187 47.7725 16.536V1.208H51.7405V7.224H55.3565C55.8685 7.224 56.1245 7.56533 56.1245 8.248C56.1245 9.72 55.6445 10.456 54.6845 10.456H51.7405V13.144ZM42.4605 17.304C43.8898 17.304 45.1592 17.4853 46.2685 17.848C47.3992 18.1893 48.3592 18.648 49.1485 19.224C49.9165 19.8213 50.5032 20.5147 50.9085 21.304C51.3352 22.0933 51.5485 22.936 51.5485 23.832C51.5485 24.728 51.3458 25.5813 50.9405 26.392C50.5352 27.1813 49.9485 27.8747 49.1805 28.472C48.3912 29.0693 47.4312 29.5387 46.3005 29.88C45.1698 30.2427 43.8898 30.424 42.4605 30.424C41.0525 30.424 39.7832 30.2427 38.6525 29.88C37.5218 29.5387 36.5725 29.08 35.8045 28.504C35.0152 27.9067 34.4072 27.2133 33.9805 26.424C33.5538 25.6133 33.3405 24.76 33.3405 23.864C33.3405 22.968 33.5538 22.1253 33.9805 21.336C34.4072 20.5253 35.0152 19.8213 35.8045 19.224C36.5725 18.648 37.5218 18.1893 38.6525 17.848C39.7832 17.4853 41.0525 17.304 42.4605 17.304ZM42.4605 27.256C43.1858 27.256 43.8578 27.1707 44.4765 27C45.1165 26.808 45.6712 26.5627 46.1405 26.264C46.6098 25.944 46.9832 25.5813 47.2605 25.176C47.5378 24.7493 47.6765 24.3013 47.6765 23.832C47.6765 23.384 47.5378 22.9573 47.2605 22.552C46.9832 22.1467 46.6098 21.784 46.1405 21.464C45.6712 21.1653 45.1165 20.9307 44.4765 20.76C43.8578 20.5893 43.1858 20.504 42.4605 20.504C41.6925 20.504 40.9885 20.5893 40.3485 20.76C39.7085 20.9307 39.1645 21.1653 38.7165 21.464C38.2472 21.784 37.8738 22.1467 37.5965 22.552C37.3405 22.9573 37.2125 23.384 37.2125 23.832C37.2125 24.3013 37.3405 24.7493 37.5965 25.176C37.8738 25.5813 38.2472 25.944 38.7165 26.264C39.1645 26.5627 39.7085 26.808 40.3485 27C40.9885 27.1707 41.6925 27.256 42.4605 27.256ZM44.0605 5.048C44.0605 6.456 43.7618 7.78933 43.1645 9.048C42.5885 10.3067 41.7565 11.4587 40.6685 12.504C39.5805 13.5707 38.2578 14.52 36.7005 15.352C35.1432 16.1627 33.3832 16.8133 31.4205 17.304C31.3138 17.3467 31.2285 17.368 31.1645 17.368C31.1218 17.368 31.0685 17.368 31.0045 17.368C30.7058 17.368 30.3858 17.1867 30.0445 16.824C29.7032 16.4613 29.5325 15.9387 29.5325 15.256C29.5325 14.7227 29.7778 14.3813 30.2685 14.232C31.7405 13.8267 33.0738 13.3253 34.2685 12.728C35.4845 12.1093 36.5192 11.4267 37.3725 10.68C38.2045 9.93333 38.8552 9.13333 39.3245 8.28C39.7938 7.40533 40.0285 6.49867 40.0285 5.56H30.2365V2.328H42.3645C43.4952 2.328 44.0605 2.872 44.0605 3.96V5.048ZM58.345 3.672H63.945V0.952H67.913V3.672H73.129C73.6197 3.672 73.865 4.024 73.865 4.728C73.865 6.15733 73.3957 6.872 72.457 6.872H70.377C71.1237 7.49067 71.689 8.184 72.073 8.952C72.4783 9.72 72.681 10.648 72.681 11.736C72.681 12.5893 72.521 13.4 72.201 14.168C71.9023 14.936 71.465 15.608 70.889 16.184C70.313 16.76 69.609 17.2187 68.777 17.56C67.945 17.88 66.9957 18.04 65.929 18.04C64.905 18.04 63.977 17.88 63.145 17.56C62.313 17.24 61.609 16.792 61.033 16.216C60.4357 15.6613 59.9663 15 59.625 14.232C59.305 13.464 59.145 12.632 59.145 11.736C59.145 10.6693 59.337 9.752 59.721 8.984C60.1263 8.19467 60.7023 7.49067 61.449 6.872H58.345V3.672ZM80.521 17.976C80.521 20.6213 79.7423 21.944 78.185 21.944H77.641C76.937 21.944 76.585 21.6027 76.585 20.92V1.208H80.521V7.832H84.169C84.681 7.832 84.937 8.184 84.937 8.888C84.937 10.3387 84.457 11.064 83.497 11.064H80.521V17.976ZM62.633 19.672H66.601V25.176C66.601 25.8587 66.953 26.2 67.657 26.2H80.361C80.8943 26.2 81.161 26.5413 81.161 27.224C81.161 28.696 80.681 29.432 79.721 29.432H65.993C63.753 29.432 62.633 28.3547 62.633 26.2V19.672ZM65.897 14.744C66.3237 14.744 66.7183 14.6587 67.081 14.488C67.4437 14.296 67.7637 14.04 68.041 13.72C68.297 13.4 68.4997 13.0373 68.649 12.632C68.7983 12.2053 68.873 11.7573 68.873 11.288C68.873 10.84 68.7983 10.4133 68.649 10.008C68.4997 9.60267 68.297 9.24 68.041 8.92C67.7637 8.62133 67.4437 8.38667 67.081 8.216C66.7183 8.024 66.3237 7.928 65.897 7.928C65.4703 7.928 65.0757 8.024 64.713 8.216C64.3503 8.38667 64.041 8.62133 63.785 8.92C63.529 9.24 63.3263 9.60267 63.177 10.008C63.0277 10.4133 62.953 10.84 62.953 11.288C62.953 11.7573 63.0277 12.2053 63.177 12.632C63.3263 13.0373 63.529 13.4 63.785 13.72C64.041 14.04 64.3503 14.296 64.713 14.488C65.0757 14.6587 65.4703 14.744 65.897 14.744ZM105.007 17.752V20.824H115.727V17.752H119.695V24.056C119.695 27.7467 118.735 29.592 116.815 29.592H104.399C102.159 29.592 101.039 28.5147 101.039 26.36V17.752H105.007ZM96.8153 3.192H102.383V0.887999H106.351V3.192H111.503C112.015 3.192 112.271 3.55467 112.271 4.28C112.271 5.66667 111.791 6.36 110.831 6.36H108.943C108.986 6.40267 109.05 6.456 109.135 6.52C109.221 6.56267 109.274 6.60533 109.295 6.648C109.871 7.13867 110.309 7.736 110.607 8.44C110.906 9.12267 111.055 9.85867 111.055 10.648C111.055 11.416 110.906 12.152 110.607 12.856C110.309 13.5387 109.871 14.136 109.295 14.648C108.719 15.1813 108.015 15.5973 107.183 15.896C106.351 16.1947 105.402 16.344 104.335 16.344C103.311 16.344 102.383 16.1947 101.551 15.896C100.719 15.576 100.015 15.16 99.4393 14.648C98.8419 14.136 98.3833 13.5387 98.0633 12.856C97.7646 12.1733 97.6259 11.4373 97.6473 10.648C97.6473 9.85867 97.7966 9.12267 98.0953 8.44C98.3939 7.736 98.8313 7.13867 99.4073 6.648C99.4499 6.60533 99.5139 6.56267 99.5993 6.52C99.6846 6.456 99.7486 6.40267 99.7913 6.36H96.8153V3.192ZM112.271 10.936H115.727V9.016H112.271V5.88H115.727V1.208H119.695V12.536C119.695 15.2027 118.906 16.536 117.327 16.536H116.783C116.079 16.536 115.727 16.1947 115.727 15.512V14.168H112.271V10.936ZM114.863 26.424C115.439 26.424 115.727 25.848 115.727 24.696V23.928H105.007V25.4C105.007 26.0827 105.359 26.424 106.063 26.424H114.863ZM104.335 13.08C104.741 13.08 105.125 13.0053 105.487 12.856C105.85 12.6853 106.159 12.472 106.415 12.216C106.671 11.96 106.874 11.6613 107.023 11.32C107.173 10.9787 107.247 10.616 107.247 10.232C107.247 9.86933 107.173 9.51733 107.023 9.176C106.874 8.83467 106.671 8.536 106.415 8.28C106.159 8.024 105.85 7.82133 105.487 7.672C105.125 7.52267 104.741 7.448 104.335 7.448C103.909 7.448 103.514 7.52267 103.151 7.672C102.81 7.82133 102.511 8.024 102.255 8.28C101.999 8.536 101.797 8.83467 101.647 9.176C101.498 9.51733 101.423 9.86933 101.423 10.232C101.423 10.616 101.498 10.9787 101.647 11.32C101.797 11.6613 101.999 11.96 102.255 12.216C102.511 12.472 102.81 12.6853 103.151 12.856C103.514 13.0053 103.909 13.08 104.335 13.08ZM125.98 7.96H134.972C135.377 7.96 135.58 7.64 135.58 7V5.432H125.98V2.328H137.852C138.961 2.328 139.516 2.86133 139.516 3.928V6.104C139.516 9.38933 138.673 11.032 136.988 11.032H129.948V12.888C129.948 13.3787 130.193 13.624 130.684 13.624H141.372C141.884 13.624 142.14 13.9653 142.14 14.648C142.14 16.056 141.66 16.76 140.7 16.76H129.308C127.089 16.76 125.98 15.6827 125.98 13.528V7.96ZM140.764 9.08H144.508V7.128H140.764V4.024H144.508V1.208H148.508V13.944C148.508 16.6107 147.718 17.944 146.14 17.944H145.596C144.87 17.944 144.508 17.6027 144.508 16.92V12.184H140.764V9.08ZM144.54 22.424H130.044V19.192H146.812C147.942 19.192 148.508 19.736 148.508 20.824V25.624C148.508 28.2907 147.718 29.624 146.14 29.624H145.628C144.902 29.624 144.54 29.2827 144.54 28.6V22.424ZM367.713 18.872C369.206 18.872 370.539 19.0213 371.713 19.32C372.886 19.6187 373.878 20.024 374.689 20.536C375.499 21.0693 376.118 21.688 376.545 22.392C376.993 23.096 377.217 23.8427 377.217 24.632C377.217 25.4213 376.993 26.168 376.545 26.872C376.118 27.576 375.499 28.1947 374.689 28.728C373.878 29.24 372.886 29.6453 371.713 29.944C370.539 30.2427 369.206 30.392 367.713 30.392C366.241 30.392 364.918 30.2427 363.745 29.944C362.571 29.6453 361.569 29.24 360.737 28.728C359.905 28.1947 359.265 27.576 358.817 26.872C358.39 26.168 358.177 25.4213 358.177 24.632C358.177 23.8427 358.39 23.096 358.817 22.392C359.265 21.688 359.905 21.0693 360.737 20.536C361.569 20.024 362.571 19.6187 363.745 19.32C364.918 19.0213 366.241 18.872 367.713 18.872ZM357.633 1.528H377.025C377.515 1.528 377.761 1.86933 377.761 2.552C377.761 4.024 377.281 4.76 376.321 4.76H361.569V7.448C361.569 8.13067 361.931 8.472 362.657 8.472H377.633C378.123 8.472 378.369 8.81333 378.369 9.496C378.369 10.9467 377.899 11.672 376.961 11.672H369.665V14.168H380.641C381.153 14.168 381.409 14.5093 381.409 15.192C381.409 16.664 380.929 17.4 379.969 17.4H354.017V14.168H365.729V11.672H360.993C358.753 11.672 357.633 10.6053 357.633 8.472V1.528ZM367.713 27.256C368.502 27.256 369.238 27.1813 369.921 27.032C370.603 26.904 371.201 26.7227 371.713 26.488C372.225 26.2533 372.619 25.976 372.897 25.656C373.195 25.3147 373.345 24.9627 373.345 24.6C373.345 24.2587 373.195 23.928 372.897 23.608C372.619 23.288 372.225 23.0107 371.713 22.776C371.201 22.5413 370.603 22.36 369.921 22.232C369.238 22.0827 368.502 22.008 367.713 22.008C366.881 22.008 366.113 22.0827 365.409 22.232C364.726 22.36 364.139 22.5413 363.649 22.776C363.158 23.0107 362.774 23.288 362.497 23.608C362.219 23.928 362.081 24.2587 362.081 24.6C362.081 24.9627 362.219 25.3147 362.497 25.656C362.774 25.976 363.158 26.2533 363.649 26.488C364.139 26.7227 364.726 26.904 365.409 27.032C366.113 27.1813 366.881 27.256 367.713 27.256ZM386.925 8.28H401.549C401.933 8.28 402.125 7.94933 402.125 7.288V5.304H386.925V2.072H404.429C405.538 2.072 406.093 2.60533 406.093 3.672V6.584C406.093 9.848 405.24 11.48 403.533 11.48H390.893V13.816C390.893 14.3067 391.138 14.552 391.629 14.552H405.965C406.456 14.552 406.701 14.8827 406.701 15.544C406.701 17.0373 406.221 17.784 405.261 17.784H390.637C389.421 17.784 388.493 17.5387 387.853 17.048C387.234 16.536 386.925 15.704 386.925 14.552V8.28ZM409.901 21.144C410.157 21.7413 410.189 22.3173 409.997 22.872C409.805 23.4053 409.389 23.7893 408.749 24.024C408.344 24.216 407.736 24.4293 406.925 24.664C406.114 24.8773 405.176 25.08 404.109 25.272C403.021 25.4427 401.837 25.6027 400.557 25.752C399.298 25.88 398.008 25.944 396.685 25.944C395.384 25.944 394.082 25.88 392.781 25.752C391.48 25.624 390.285 25.464 389.197 25.272C388.088 25.08 387.096 24.8773 386.221 24.664C385.368 24.4293 384.728 24.216 384.301 24.024C383.725 23.8107 383.33 23.4267 383.117 22.872C382.925 22.3173 382.978 21.7413 383.277 21.144C383.448 20.888 383.672 20.7173 383.949 20.632C384.226 20.5467 384.642 20.5573 385.197 20.664C385.752 20.7707 386.178 20.8773 386.477 20.984C386.733 21.0693 387.16 21.1867 387.757 21.336C388.269 21.464 388.877 21.592 389.581 21.72V18.648H393.517V22.232C394.498 22.296 395.554 22.328 396.685 22.328C397.709 22.328 398.648 22.3067 399.501 22.264V18.648H403.437V21.688C404.098 21.56 404.653 21.4213 405.101 21.272C405.592 21.1227 405.976 21.0053 406.253 20.92C406.509 20.8347 406.808 20.76 407.149 20.696C407.49 20.6107 407.842 20.5573 408.205 20.536C408.546 20.5147 408.866 20.536 409.165 20.6C409.485 20.664 409.73 20.8453 409.901 21.144ZM423.091 5.56V2.328H438.675C439.209 2.328 439.475 2.66933 439.475 3.352C439.475 4.20533 439.315 4.80267 438.995 5.144H442.195V1.208H446.163V12.856C446.163 15.5227 445.385 16.856 443.827 16.856H443.283C442.558 16.856 442.195 16.5147 442.195 15.832V13.208H440.147C440.169 13.272 440.179 13.3787 440.179 13.528C440.179 15 439.699 15.736 438.739 15.736H422.835V12.504H425.395V6.456H429.299V12.504H432.755V6.456H436.627V12.504H438.867V9.976H442.195V8.376H438.867V5.304C438.633 5.47467 438.355 5.56 438.035 5.56H423.091ZM436.595 17.304C438.046 17.304 439.347 17.4853 440.499 17.848C441.651 18.1893 442.633 18.648 443.443 19.224C444.233 19.8213 444.83 20.5253 445.235 21.336C445.662 22.1253 445.875 22.968 445.875 23.864C445.875 24.76 445.662 25.6133 445.235 26.424C444.83 27.2133 444.233 27.9067 443.443 28.504C442.633 29.08 441.651 29.5387 440.499 29.88C439.347 30.2427 438.046 30.424 436.595 30.424C435.145 30.424 433.843 30.2427 432.691 29.88C431.561 29.5387 430.601 29.08 429.811 28.504C429.001 27.9067 428.382 27.2133 427.955 26.424C427.55 25.6133 427.347 24.76 427.347 23.864C427.347 22.968 427.55 22.1253 427.955 21.336C428.382 20.5253 429.001 19.8213 429.811 19.224C430.601 18.648 431.561 18.1893 432.691 17.848C433.843 17.4853 435.145 17.304 436.595 17.304ZM436.595 27.256C437.363 27.256 438.067 27.1707 438.707 27C439.369 26.808 439.945 26.5627 440.435 26.264C440.905 25.944 441.278 25.5813 441.555 25.176C441.833 24.7493 441.971 24.3013 441.971 23.832C441.971 23.384 441.833 22.9573 441.555 22.552C441.278 22.1467 440.905 21.784 440.435 21.464C439.945 21.1653 439.369 20.9307 438.707 20.76C438.067 20.5893 437.363 20.504 436.595 20.504C435.806 20.504 435.081 20.5893 434.419 20.76C433.758 20.9307 433.193 21.1653 432.723 21.464C432.233 21.784 431.849 22.1467 431.571 22.552C431.315 22.9573 431.187 23.384 431.187 23.832C431.187 24.3013 431.315 24.7493 431.571 25.176C431.849 25.5813 432.233 25.944 432.723 26.264C433.193 26.5627 433.758 26.808 434.419 27C435.081 27.1707 435.806 27.256 436.595 27.256ZM474.272 25.912C474.272 28.5787 473.482 29.912 471.904 29.912H471.36C470.656 29.912 470.304 29.5707 470.304 28.888V1.208H474.272V10.008H477.92C478.41 10.008 478.656 10.3707 478.656 11.096C478.656 12.632 478.176 13.4 477.216 13.4H474.272V25.912ZM466.208 5.368C466.208 9.10133 465.12 12.344 462.944 15.096C460.746 17.8693 457.802 20.0027 454.112 21.496C453.408 21.816 452.8 21.5067 452.288 20.568C451.818 19.6507 451.936 18.9787 452.64 18.552C454.026 17.9973 455.274 17.2933 456.384 16.44C457.493 15.5867 458.517 14.6053 459.456 13.496C461.269 11.2987 462.176 8.76 462.176 5.88H452.768V2.648H464.544C465.653 2.648 466.208 3.18133 466.208 4.248V5.368Z" fill="#1AD079"/>
<path d="M166.024 0.855999C167.582 0.855999 168.979 0.994666 170.216 1.272C171.475 1.528 172.542 1.89067 173.416 2.36C174.291 2.82933 174.963 3.384 175.432 4.024C175.902 4.664 176.136 5.34667 176.136 6.072C176.136 6.776 175.912 7.45867 175.464 8.12C175.038 8.76 174.398 9.32533 173.544 9.816C172.67 10.3067 171.603 10.7013 170.344 11C169.086 11.2773 167.646 11.416 166.024 11.416C164.488 11.416 163.091 11.2773 161.832 11C160.595 10.7227 159.539 10.3493 158.664 9.88C157.768 9.41067 157.075 8.86667 156.584 8.248C156.115 7.62933 155.88 6.968 155.88 6.264C155.88 5.51733 156.104 4.81333 156.552 4.152C157 3.49066 157.662 2.91467 158.536 2.424C159.39 1.93333 160.446 1.54933 161.704 1.272C162.963 0.994666 164.403 0.855999 166.024 0.855999ZM166.024 8.248C166.878 8.248 167.678 8.19467 168.424 8.088C169.171 7.98133 169.822 7.832 170.376 7.64C170.931 7.448 171.368 7.224 171.688 6.968C172.008 6.712 172.168 6.43467 172.168 6.136C172.168 5.83733 172.008 5.56 171.688 5.304C171.368 5.048 170.931 4.824 170.376 4.632C169.822 4.44 169.171 4.29067 168.424 4.184C167.678 4.07733 166.878 4.024 166.024 4.024C165.128 4.024 164.307 4.07733 163.56 4.184C162.814 4.29067 162.174 4.44 161.64 4.632C161.086 4.824 160.659 5.048 160.36 5.304C160.062 5.56 159.912 5.83733 159.912 6.136C159.912 6.43467 160.062 6.712 160.36 6.968C160.659 7.224 161.086 7.448 161.64 7.64C162.174 7.832 162.814 7.98133 163.56 8.088C164.307 8.19467 165.128 8.248 166.024 8.248ZM152.328 12.792H178.984C179.496 12.792 179.752 13.1333 179.752 13.816C179.752 15.224 179.272 15.928 178.312 15.928H152.328V12.792ZM156.296 22.232H171.24C171.624 22.232 171.816 21.9333 171.816 21.336V20.696H156.296V17.656H174.12C175.23 17.656 175.784 18.2 175.784 19.288V20.056C175.784 21.1653 175.699 22.0507 175.528 22.712C175.379 23.3733 175.176 23.8747 174.92 24.216C174.643 24.5787 174.323 24.8133 173.96 24.92C173.619 25.0267 173.256 25.08 172.872 25.08H160.264V25.912C160.264 26.4027 160.51 26.648 161 26.648H175.656C176.147 26.648 176.392 26.9573 176.392 27.576C176.392 28.984 175.912 29.688 174.952 29.688H159.944C158.728 29.688 157.811 29.432 157.192 28.92C156.595 28.4293 156.296 27.608 156.296 26.456V22.232ZM201.135 1.784C202.287 1.82667 203.321 2.008 204.239 2.328C205.156 2.648 205.935 3.08533 206.575 3.64C207.215 4.19467 207.705 4.856 208.047 5.624C208.388 6.37067 208.559 7.192 208.559 8.088C208.559 8.96267 208.388 9.784 208.047 10.552C207.727 11.32 207.257 11.992 206.639 12.568C205.999 13.144 205.209 13.6027 204.271 13.944C203.353 14.2853 202.308 14.456 201.135 14.456C199.983 14.456 198.948 14.296 198.031 13.976C197.135 13.6347 196.367 13.176 195.727 12.6C195.087 12.024 194.596 11.352 194.255 10.584C193.935 9.816 193.775 8.99467 193.775 8.12C193.753 7.224 193.913 6.392 194.255 5.624C194.596 4.856 195.087 4.19467 195.727 3.64C196.367 3.08533 197.135 2.648 198.031 2.328C198.948 2.008 199.983 1.82667 201.135 1.784ZM201.135 11.192C201.647 11.192 202.116 11.1173 202.543 10.968C202.991 10.7973 203.375 10.5733 203.695 10.296C204.015 10.0187 204.271 9.688 204.463 9.304C204.655 8.89867 204.751 8.472 204.751 8.024C204.751 7.128 204.399 6.392 203.695 5.816C203.012 5.21866 202.159 4.92 201.135 4.92C200.623 4.92 200.143 5.00533 199.695 5.176C199.268 5.32533 198.895 5.53867 198.575 5.816C198.255 6.09333 197.999 6.424 197.807 6.808C197.636 7.17067 197.551 7.576 197.551 8.024C197.551 8.94133 197.892 9.69867 198.575 10.296C199.257 10.8933 200.111 11.192 201.135 11.192ZM215.727 25.912C215.727 28.5573 214.948 29.88 213.391 29.88H212.815C212.111 29.88 211.759 29.5387 211.759 28.856V1.208H215.727V25.912ZM192.367 16.6H209.647C210.18 16.6 210.447 16.9627 210.447 17.688C210.447 19.1173 209.967 19.832 209.007 19.832H203.439V25.272C203.439 28.1093 202.66 29.528 201.103 29.528H200.527C199.823 29.528 199.47 29.1867 199.47 28.504V19.832H192.367V16.6ZM221.595 3.672H227.195V0.952H231.163V3.672H236.379C236.87 3.672 237.115 4.024 237.115 4.728C237.115 6.15733 236.646 6.872 235.707 6.872H233.627C234.374 7.49067 234.939 8.184 235.323 8.952C235.728 9.72 235.931 10.648 235.931 11.736C235.931 12.5893 235.771 13.4 235.451 14.168C235.152 14.936 234.715 15.608 234.139 16.184C233.563 16.76 232.859 17.2187 232.027 17.56C231.195 17.88 230.246 18.04 229.179 18.04C228.155 18.04 227.227 17.88 226.395 17.56C225.563 17.24 224.859 16.792 224.283 16.216C223.686 15.6613 223.216 15 222.875 14.232C222.555 13.464 222.395 12.632 222.395 11.736C222.395 10.6693 222.587 9.752 222.971 8.984C223.376 8.19467 223.952 7.49067 224.699 6.872H221.595V3.672ZM243.771 17.976C243.771 20.6213 242.992 21.944 241.435 21.944H240.891C240.187 21.944 239.835 21.6027 239.835 20.92V1.208H243.771V7.832H247.419C247.931 7.832 248.187 8.184 248.187 8.888C248.187 10.3387 247.707 11.064 246.747 11.064H243.771V17.976ZM225.883 19.672H229.851V25.176C229.851 25.8587 230.203 26.2 230.907 26.2H243.611C244.144 26.2 244.411 26.5413 244.411 27.224C244.411 28.696 243.931 29.432 242.971 29.432H229.243C227.003 29.432 225.883 28.3547 225.883 26.2V19.672ZM229.147 14.744C229.574 14.744 229.968 14.6587 230.331 14.488C230.694 14.296 231.014 14.04 231.291 13.72C231.547 13.4 231.75 13.0373 231.899 12.632C232.048 12.2053 232.123 11.7573 232.123 11.288C232.123 10.84 232.048 10.4133 231.899 10.008C231.75 9.60267 231.547 9.24 231.291 8.92C231.014 8.62133 230.694 8.38667 230.331 8.216C229.968 8.024 229.574 7.928 229.147 7.928C228.72 7.928 228.326 8.024 227.963 8.216C227.6 8.38667 227.291 8.62133 227.035 8.92C226.779 9.24 226.576 9.60267 226.427 10.008C226.278 10.4133 226.203 10.84 226.203 11.288C226.203 11.7573 226.278 12.2053 226.427 12.632C226.576 13.0373 226.779 13.4 227.035 13.72C227.291 14.04 227.6 14.296 227.963 14.488C228.326 14.6587 228.72 14.744 229.147 14.744ZM261.665 16.824C261.431 16.952 261.239 17.016 261.089 17.016C260.919 17.016 260.727 16.952 260.513 16.824C260.321 16.696 260.14 16.536 259.969 16.344C259.799 16.152 259.649 15.9387 259.521 15.704C259.415 15.448 259.361 15.192 259.361 14.936C259.383 14.7867 259.436 14.6267 259.521 14.456C259.607 14.2853 259.745 14.136 259.937 14.008C261.751 12.7707 263.116 11.352 264.033 9.752C264.972 8.152 265.441 6.38133 265.441 4.44V2.008H269.537V4.44C269.537 6.31733 270.007 8.04533 270.945 9.624C271.884 11.1813 273.249 12.536 275.041 13.688C275.191 13.7947 275.319 13.944 275.425 14.136C275.532 14.3067 275.596 14.4667 275.617 14.616C275.617 14.8507 275.553 15.096 275.425 15.352C275.297 15.5867 275.148 15.8 274.977 15.992C274.807 16.2053 274.615 16.376 274.401 16.504C274.188 16.632 274.007 16.696 273.857 16.696C273.687 16.696 273.505 16.632 273.313 16.504C270.796 15.1387 268.865 13.432 267.521 11.384C266.86 12.536 266.039 13.56 265.057 14.456C264.076 15.352 262.945 16.1413 261.665 16.824ZM274.465 6.776H278.977V1.208H282.945V17.24C282.945 18.648 282.753 19.7147 282.369 20.44C282.007 21.144 281.42 21.496 280.609 21.496H280.033C279.329 21.496 278.977 21.1547 278.977 20.472V10.008H274.465V6.776ZM264.705 19.224H268.673V25.176C268.673 25.8587 269.025 26.2 269.729 26.2H282.785C283.297 26.2 283.553 26.5413 283.553 27.224C283.553 28.696 283.073 29.432 282.113 29.432H268.385C267.169 29.432 266.252 29.176 265.633 28.664C265.015 28.1733 264.705 27.352 264.705 26.2V19.224ZM288.43 2.328H299.95C300.44 2.328 300.686 2.648 300.686 3.288C300.686 4.71733 300.216 5.432 299.278 5.432H292.366V7.96H299.278C299.79 7.96 300.046 8.28 300.046 8.92C300.046 10.2853 299.566 10.968 298.606 10.968H292.366V12.888C292.366 13.3787 292.632 13.624 293.166 13.624H300.558C301.048 13.624 301.294 13.9547 301.294 14.616C301.294 16.0453 300.824 16.76 299.886 16.76H291.758C289.539 16.76 288.43 15.6827 288.43 13.528V2.328ZM312.558 14.104C312.558 16.7493 311.779 18.072 310.222 18.072H309.742C309.038 18.072 308.686 17.7307 308.686 17.048V9.976H306.574V13.72C306.574 16.3867 305.795 17.72 304.238 17.72H303.726C303.022 17.72 302.67 17.3787 302.67 16.696V1.208H306.574V6.744H308.686V1.208H312.558V14.104ZM308.59 22.424H293.454V19.192H310.894C312.003 19.192 312.558 19.736 312.558 20.824V25.624C312.558 28.2907 311.779 29.624 310.222 29.624H309.646C308.942 29.624 308.59 29.2827 308.59 28.6V22.424ZM331.13 17.816C332.581 17.816 333.872 17.9867 335.002 18.328C336.154 18.648 337.136 19.0853 337.946 19.64C338.736 20.216 339.344 20.888 339.77 21.656C340.197 22.424 340.41 23.2453 340.41 24.12C340.41 24.9947 340.197 25.816 339.77 26.584C339.344 27.3307 338.736 27.992 337.946 28.568C337.136 29.144 336.154 29.592 335.002 29.912C333.872 30.2533 332.581 30.424 331.13 30.424C329.701 30.424 328.41 30.2533 327.258 29.912C326.106 29.592 325.136 29.144 324.346 28.568C323.536 27.992 322.917 27.3307 322.49 26.584C322.064 25.816 321.85 24.9947 321.85 24.12C321.85 23.2453 322.064 22.424 322.49 21.656C322.917 20.888 323.536 20.216 324.346 19.64C325.136 19.0853 326.106 18.648 327.258 18.328C328.41 17.9867 329.701 17.816 331.13 17.816ZM317.69 3.512H323.258V0.952H327.226V3.512H332.378C332.89 3.512 333.146 3.87467 333.146 4.6C333.146 5.98667 332.666 6.68 331.706 6.68H329.658C329.765 6.744 329.861 6.808 329.946 6.872C330.032 6.936 330.106 7 330.17 7.064C330.746 7.576 331.184 8.20533 331.482 8.952C331.781 9.67733 331.93 10.4667 331.93 11.32C331.93 12.1733 331.781 12.9627 331.482 13.688C331.184 14.4133 330.746 15.0427 330.17 15.576C329.594 16.1093 328.89 16.536 328.058 16.856C327.226 17.176 326.277 17.3467 325.21 17.368C324.186 17.3467 323.258 17.176 322.426 16.856C321.594 16.536 320.89 16.1093 320.314 15.576C319.717 15.0427 319.258 14.4133 318.938 13.688C318.64 12.9627 318.501 12.1733 318.522 11.32C318.522 10.4667 318.672 9.67733 318.97 8.952C319.269 8.20533 319.706 7.576 320.282 7.064C320.368 7 320.442 6.936 320.506 6.872C320.592 6.808 320.688 6.744 320.794 6.68H317.69V3.512ZM331.13 27.256C331.877 27.256 332.581 27.1707 333.242 27C333.904 26.8293 334.48 26.6053 334.97 26.328C335.461 26.0293 335.845 25.6987 336.122 25.336C336.4 24.952 336.538 24.5467 336.538 24.12C336.538 23.6933 336.4 23.288 336.122 22.904C335.845 22.52 335.461 22.1787 334.97 21.88C334.48 21.6027 333.904 21.3893 333.242 21.24C332.581 21.0693 331.877 20.984 331.13 20.984C330.341 20.984 329.616 21.0693 328.954 21.24C328.314 21.3893 327.76 21.6027 327.29 21.88C326.8 22.1787 326.416 22.52 326.138 22.904C325.882 23.288 325.754 23.6933 325.754 24.12C325.754 24.5467 325.882 24.952 326.138 25.336C326.416 25.6987 326.8 26.0293 327.29 26.328C327.76 26.6053 328.314 26.8293 328.954 27C329.616 27.1707 330.341 27.256 331.13 27.256ZM325.21 14.072C325.616 14.072 326 13.9867 326.362 13.816C326.725 13.6453 327.034 13.4107 327.29 13.112C327.546 12.8347 327.749 12.504 327.898 12.12C328.048 11.736 328.122 11.3307 328.122 10.904C328.122 10.4773 328.048 10.0827 327.898 9.72C327.749 9.336 327.546 8.99467 327.29 8.696C327.034 8.41867 326.725 8.19467 326.362 8.024C326 7.85333 325.616 7.768 325.21 7.768C324.784 7.768 324.389 7.85333 324.026 8.024C323.685 8.19467 323.386 8.41867 323.13 8.696C322.874 8.99467 322.672 9.336 322.522 9.72C322.373 10.0827 322.298 10.4773 322.298 10.904C322.298 11.3307 322.373 11.736 322.522 12.12C322.672 12.504 322.874 12.8347 323.13 13.112C323.386 13.4107 323.685 13.6453 324.026 13.816C324.389 13.9867 324.784 14.072 325.21 14.072ZM333.21 11.704H336.602V9.752H333.21V6.68H336.602V1.208H340.57V14.072C340.57 16.7387 339.781 18.072 338.202 18.072H337.658C336.954 18.072 336.602 17.7307 336.602 17.048V14.808H333.21V11.704ZM492.038 21.24C491.846 21.368 491.643 21.432 491.43 21.432C491.281 21.432 491.099 21.3787 490.886 21.272C490.694 21.144 490.502 20.984 490.31 20.792C490.118 20.6 489.947 20.3867 489.798 20.152C489.67 19.9173 489.606 19.6827 489.606 19.448C489.606 19.2133 489.659 19.032 489.766 18.904C489.894 18.7547 490.086 18.5733 490.342 18.36C492.262 16.7813 493.638 14.9573 494.47 12.888C495.323 10.7973 495.75 8.38667 495.75 5.656V2.328H499.814V5.656C499.814 7.08533 499.921 8.408 500.134 9.624C500.369 10.84 500.721 11.9813 501.19 13.048C501.659 14.1147 502.267 15.1173 503.014 16.056C503.761 16.9947 504.667 17.8907 505.734 18.744C505.841 18.872 505.947 19.0107 506.054 19.16C506.161 19.3093 506.214 19.4693 506.214 19.64C506.214 19.9387 506.139 20.216 505.99 20.472C505.862 20.7067 505.702 20.9093 505.51 21.08C505.318 21.2507 505.115 21.3893 504.902 21.496C504.689 21.6027 504.507 21.656 504.358 21.656C504.187 21.656 504.049 21.6133 503.942 21.528C502.641 20.6533 501.446 19.64 500.358 18.488C499.27 17.3147 498.417 16.088 497.798 14.808C497.137 16.1093 496.315 17.2933 495.334 18.36C494.353 19.4267 493.254 20.3867 492.038 21.24ZM504.422 9.016H509.478V1.208H513.414V25.88C513.414 28.5467 512.646 29.88 511.11 29.88H510.534C509.83 29.88 509.478 29.5387 509.478 28.856V12.376H504.422V9.016ZM523.795 2.648V8.76H529.843V2.648H533.811V16.056C533.811 19.7467 532.851 21.592 530.931 21.592H523.155C520.936 21.592 519.827 20.5147 519.827 18.36V2.648H523.795ZM528.979 18.36C529.555 18.36 529.843 17.784 529.843 16.632V11.992H523.795V17.336C523.795 18.0187 524.157 18.36 524.883 18.36H528.979ZM542.035 25.912C542.035 28.5787 541.256 29.912 539.699 29.912H539.091C538.387 29.912 538.035 29.5707 538.035 28.888V1.208H542.035V25.912ZM557.727 2.008H561.791V3.448C561.791 4.38667 561.983 5.31467 562.367 6.232C562.751 7.128 563.306 7.97066 564.031 8.76C564.735 9.54933 565.588 10.264 566.591 10.904C567.594 11.544 568.724 12.0667 569.983 12.472C570.474 12.6427 570.719 12.9413 570.719 13.368C570.719 14.0507 570.527 14.584 570.143 14.968C569.78 15.352 569.418 15.544 569.055 15.544H568.863C567.839 15.2453 566.858 14.8827 565.919 14.456C565.002 14.008 564.148 13.5173 563.359 12.984C562.57 12.472 561.866 11.928 561.247 11.352C560.65 10.7547 560.159 10.1467 559.775 9.528C557.919 12.1947 554.911 14.1787 550.751 15.48C550.708 15.5227 550.644 15.544 550.559 15.544C550.495 15.544 550.431 15.544 550.367 15.544C550.047 15.544 549.706 15.352 549.343 14.968C548.98 14.5627 548.799 14.0293 548.799 13.368C548.799 12.92 549.044 12.6107 549.535 12.44C550.794 12.0347 551.924 11.512 552.927 10.872C553.951 10.2107 554.815 9.48533 555.519 8.696C556.223 7.928 556.767 7.096 557.151 6.2C557.535 5.304 557.727 4.38667 557.727 3.448V2.008ZM573.151 20.184C573.407 20.7813 573.439 21.3573 573.247 21.912C573.055 22.4453 572.639 22.8293 571.999 23.064C571.594 23.256 570.986 23.4693 570.175 23.704C569.364 23.9173 568.426 24.1093 567.359 24.28C566.271 24.472 565.087 24.6427 563.807 24.792C562.548 24.92 561.258 24.984 559.935 24.984C558.634 24.984 557.332 24.92 556.031 24.792C554.73 24.664 553.535 24.504 552.447 24.312C551.338 24.12 550.346 23.9173 549.471 23.704C548.618 23.4693 547.978 23.256 547.551 23.064C546.975 22.8507 546.58 22.4667 546.367 21.912C546.175 21.3573 546.228 20.7813 546.527 20.184C546.698 19.928 546.922 19.7573 547.199 19.672C547.476 19.5867 547.892 19.5973 548.447 19.704C549.002 19.8107 549.428 19.9173 549.727 20.024C549.983 20.1093 550.41 20.2267 551.007 20.376C551.604 20.5253 552.34 20.6747 553.215 20.824C554.068 20.9733 555.06 21.1013 556.191 21.208C557.343 21.3147 558.591 21.368 559.935 21.368C561.386 21.368 562.644 21.3147 563.711 21.208C564.799 21.08 565.727 20.9307 566.495 20.76C567.242 20.6107 567.86 20.4613 568.351 20.312C568.842 20.1627 569.226 20.0453 569.503 19.96C569.759 19.8747 570.058 19.8 570.399 19.736C570.74 19.6507 571.092 19.5973 571.455 19.576C571.796 19.5547 572.116 19.576 572.415 19.64C572.735 19.704 572.98 19.8853 573.151 20.184Z" fill="#07133B"/>
</svg>
