<svg width="41" height="40" viewBox="0 0 41 40" fill="none" xmlns="http://www.w3.org/2000/svg">
<path d="M20.2645 0C9.17834 0 0.180908 8.9376 0.180908 19.95C0.180908 30.9624 9.17834 39.9 20.2645 39.9C31.3506 39.9 40.348 30.9624 40.348 19.95C40.348 8.9376 31.3506 0 20.2645 0ZM20.2645 5.985C23.5983 5.985 26.2895 8.6583 26.2895 11.97C26.2895 15.2817 23.5983 17.955 20.2645 17.955C16.9306 17.955 14.2394 15.2817 14.2394 11.97C14.2394 8.6583 16.9306 5.985 20.2645 5.985ZM20.2645 34.314C15.2436 34.314 10.8051 31.7604 8.21432 27.8901C8.27458 23.92 16.2477 21.7455 20.2645 21.7455C24.2611 21.7455 32.2543 23.92 32.3146 27.8901C29.7238 31.7604 25.2853 34.314 20.2645 34.314Z" fill="#1AD079"/>
</svg>
